<svg width="211" height="55" viewBox="0 0 211 55" fill="none" xmlns="http://www.w3.org/2000/svg">
<path d="M16.3 43.21C14.84 43.21 13.52 42.96 12.34 42.46C11.18 41.96 10.26 41.24 9.58 40.3C8.9 39.36 8.55 38.25 8.53 36.97H13.03C13.09 37.83 13.39 38.51 13.93 39.01C14.49 39.51 15.25 39.76 16.21 39.76C17.19 39.76 17.96 39.53 18.52 39.07C19.08 38.59 19.36 37.97 19.36 37.21C19.36 36.59 19.17 36.08 18.79 35.68C18.41 35.28 17.93 34.97 17.35 34.75C16.79 34.51 16.01 34.25 15.01 33.97C13.65 33.57 12.54 33.18 11.68 32.8C10.84 32.4 10.11 31.81 9.49 31.03C8.89 30.23 8.59 29.17 8.59 27.85C8.59 26.61 8.9 25.53 9.52 24.61C10.14 23.69 11.01 22.99 12.13 22.51C13.25 22.01 14.53 21.76 15.97 21.76C18.13 21.76 19.88 22.29 21.22 23.35C22.58 24.39 23.33 25.85 23.47 27.73H18.85C18.81 27.01 18.5 26.42 17.92 25.96C17.36 25.48 16.61 25.24 15.67 25.24C14.85 25.24 14.19 25.45 13.69 25.87C13.21 26.29 12.97 26.9 12.97 27.7C12.97 28.26 13.15 28.73 13.51 29.11C13.89 29.47 14.35 29.77 14.89 30.01C15.45 30.23 16.23 30.49 17.23 30.79C18.59 31.19 19.7 31.59 20.56 31.99C21.42 32.39 22.16 32.99 22.78 33.79C23.4 34.59 23.71 35.64 23.71 36.94C23.71 38.06 23.42 39.1 22.84 40.06C22.26 41.02 21.41 41.79 20.29 42.37C19.17 42.93 17.84 43.21 16.3 43.21ZM32.2413 29.83V37.87C32.2413 38.43 32.3713 38.84 32.6313 39.1C32.9113 39.34 33.3713 39.46 34.0113 39.46H35.9613V43H33.3213C29.7813 43 28.0113 41.28 28.0113 37.84V29.83H26.0313V26.38H28.0113V22.27H32.2413V26.38H35.9613V29.83H32.2413ZM54.6721 26.38V43H50.4421V40.9C49.9021 41.62 49.1921 42.19 48.3121 42.61C47.4521 43.01 46.5121 43.21 45.4921 43.21C44.1921 43.21 43.0421 42.94 42.0421 42.4C41.0421 41.84 40.2521 41.03 39.6721 39.97C39.1121 38.89 38.8321 37.61 38.8321 36.13V26.38H43.0321V35.53C43.0321 36.85 43.3621 37.87 44.0221 38.59C44.6821 39.29 45.5821 39.64 46.7221 39.64C47.8821 39.64 48.7921 39.29 49.4521 38.59C50.1121 37.87 50.4421 36.85 50.4421 35.53V26.38H54.6721ZM57.7361 34.63C57.7361 32.95 58.0661 31.46 58.7261 30.16C59.4061 28.86 60.3261 27.86 61.4861 27.16C62.6461 26.46 63.9361 26.11 65.3561 26.11C66.4361 26.11 67.4661 26.35 68.4461 26.83C69.4261 27.29 70.2061 27.91 70.7861 28.69V20.8H75.0461V43H70.7861V40.54C70.2661 41.36 69.5361 42.02 68.5961 42.52C67.6561 43.02 66.5661 43.27 65.3261 43.27C63.9261 43.27 62.6461 42.91 61.4861 42.19C60.3261 41.47 59.4061 40.46 58.7261 39.16C58.0661 37.84 57.7361 36.33 57.7361 34.63ZM70.8161 34.69C70.8161 33.67 70.6161 32.8 70.2161 32.08C69.8161 31.34 69.2761 30.78 68.5961 30.4C67.9161 30 67.1861 29.8 66.4061 29.8C65.6261 29.8 64.9061 29.99 64.2461 30.37C63.5861 30.75 63.0461 31.31 62.6261 32.05C62.2261 32.77 62.0261 33.63 62.0261 34.63C62.0261 35.63 62.2261 36.51 62.6261 37.27C63.0461 38.01 63.5861 38.58 64.2461 38.98C64.9261 39.38 65.6461 39.58 66.4061 39.58C67.1861 39.58 67.9161 39.39 68.5961 39.01C69.2761 38.61 69.8161 38.05 70.2161 37.33C70.6161 36.59 70.8161 35.71 70.8161 34.69ZM81.2781 24.4C80.5381 24.4 79.9181 24.17 79.4181 23.71C78.9381 23.23 78.6981 22.64 78.6981 21.94C78.6981 21.24 78.9381 20.66 79.4181 20.2C79.9181 19.72 80.5381 19.48 81.2781 19.48C82.0181 19.48 82.6281 19.72 83.1081 20.2C83.6081 20.66 83.8581 21.24 83.8581 21.94C83.8581 22.64 83.6081 23.23 83.1081 23.71C82.6281 24.17 82.0181 24.4 81.2781 24.4ZM83.3481 26.38V43H79.1481V26.38H83.3481ZM94.8777 43.27C93.2777 43.27 91.8377 42.92 90.5577 42.22C89.2777 41.5 88.2677 40.49 87.5277 39.19C86.8077 37.89 86.4477 36.39 86.4477 34.69C86.4477 32.99 86.8177 31.49 87.5577 30.19C88.3177 28.89 89.3477 27.89 90.6477 27.19C91.9477 26.47 93.3977 26.11 94.9977 26.11C96.5977 26.11 98.0477 26.47 99.3477 27.19C100.648 27.89 101.668 28.89 102.408 30.19C103.168 31.49 103.548 32.99 103.548 34.69C103.548 36.39 103.158 37.89 102.378 39.19C101.618 40.49 100.578 41.5 99.2577 42.22C97.9577 42.92 96.4977 43.27 94.8777 43.27ZM94.8777 39.61C95.6377 39.61 96.3477 39.43 97.0077 39.07C97.6877 38.69 98.2277 38.13 98.6277 37.39C99.0277 36.65 99.2277 35.75 99.2277 34.69C99.2277 33.11 98.8077 31.9 97.9677 31.06C97.1477 30.2 96.1377 29.77 94.9377 29.77C93.7377 29.77 92.7277 30.2 91.9077 31.06C91.1077 31.9 90.7077 33.11 90.7077 34.69C90.7077 36.27 91.0977 37.49 91.8777 38.35C92.6777 39.19 93.6777 39.61 94.8777 39.61Z" fill="#8EA3F6"/>
<path d="M121.209 28.36C120.729 27.48 120.069 26.81 119.229 26.35C118.389 25.89 117.409 25.66 116.289 25.66C115.049 25.66 113.949 25.94 112.989 26.5C112.029 27.06 111.279 27.86 110.739 28.9C110.199 29.94 109.929 31.14 109.929 32.5C109.929 33.9 110.199 35.12 110.739 36.16C111.299 37.2 112.069 38 113.049 38.56C114.029 39.12 115.169 39.4 116.469 39.4C118.069 39.4 119.379 38.98 120.399 38.14C121.419 37.28 122.089 36.09 122.409 34.57H115.209V31.36H126.549V35.02C126.269 36.48 125.669 37.83 124.749 39.07C123.829 40.31 122.639 41.31 121.179 42.07C119.739 42.81 118.119 43.18 116.319 43.18C114.299 43.18 112.469 42.73 110.829 41.83C109.209 40.91 107.929 39.64 106.989 38.02C106.069 36.4 105.609 34.56 105.609 32.5C105.609 30.44 106.069 28.6 106.989 26.98C107.929 25.34 109.209 24.07 110.829 23.17C112.469 22.25 114.289 21.79 116.289 21.79C118.649 21.79 120.699 22.37 122.439 23.53C124.179 24.67 125.379 26.28 126.039 28.36H121.209ZM133.856 28.96C134.396 28.08 135.096 27.39 135.956 26.89C136.836 26.39 137.836 26.14 138.956 26.14V30.55H137.846C136.526 30.55 135.526 30.86 134.846 31.48C134.186 32.1 133.856 33.18 133.856 34.72V43H129.656V26.38H133.856V28.96ZM140.705 34.63C140.705 32.95 141.035 31.46 141.695 30.16C142.375 28.86 143.285 27.86 144.425 27.16C145.585 26.46 146.875 26.11 148.295 26.11C149.535 26.11 150.615 26.36 151.535 26.86C152.475 27.36 153.225 27.99 153.785 28.75V26.38H158.015V43H153.785V40.57C153.245 41.35 152.495 42 151.535 42.52C150.595 43.02 149.505 43.27 148.265 43.27C146.865 43.27 145.585 42.91 144.425 42.19C143.285 41.47 142.375 40.46 141.695 39.16C141.035 37.84 140.705 36.33 140.705 34.63ZM153.785 34.69C153.785 33.67 153.585 32.8 153.185 32.08C152.785 31.34 152.245 30.78 151.565 30.4C150.885 30 150.155 29.8 149.375 29.8C148.595 29.8 147.875 29.99 147.215 30.37C146.555 30.75 146.015 31.31 145.595 32.05C145.195 32.77 144.995 33.63 144.995 34.63C144.995 35.63 145.195 36.51 145.595 37.27C146.015 38.01 146.555 38.58 147.215 38.98C147.895 39.38 148.615 39.58 149.375 39.58C150.155 39.58 150.885 39.39 151.565 39.01C152.245 38.61 152.785 38.05 153.185 37.33C153.585 36.59 153.785 35.71 153.785 34.69ZM169.737 29.83H166.827V43H162.567V29.83H160.677V26.38H162.567V25.54C162.567 23.5 163.147 22 164.307 21.04C165.467 20.08 167.217 19.63 169.557 19.69V23.23C168.537 23.21 167.827 23.38 167.427 23.74C167.027 24.1 166.827 24.75 166.827 25.69V26.38H169.737V29.83ZM187.909 34.33C187.909 34.93 187.869 35.47 187.789 35.95H175.639C175.739 37.15 176.159 38.09 176.899 38.77C177.639 39.45 178.549 39.79 179.629 39.79C181.189 39.79 182.299 39.12 182.959 37.78H187.489C187.009 39.38 186.089 40.7 184.729 41.74C183.369 42.76 181.699 43.27 179.719 43.27C178.119 43.27 176.679 42.92 175.399 42.22C174.139 41.5 173.149 40.49 172.429 39.19C171.729 37.89 171.379 36.39 171.379 34.69C171.379 32.97 171.729 31.46 172.429 30.16C173.129 28.86 174.109 27.86 175.369 27.16C176.629 26.46 178.079 26.11 179.719 26.11C181.299 26.11 182.709 26.45 183.949 27.13C185.209 27.81 186.179 28.78 186.859 30.04C187.559 31.28 187.909 32.71 187.909 34.33ZM183.559 33.13C183.539 32.05 183.149 31.19 182.389 30.55C181.629 29.89 180.699 29.56 179.599 29.56C178.559 29.56 177.679 29.88 176.959 30.52C176.259 31.14 175.829 32.01 175.669 33.13H183.559ZM195.174 28.96C195.714 28.08 196.414 27.39 197.274 26.89C198.154 26.39 199.154 26.14 200.274 26.14V30.55H199.164C197.844 30.55 196.844 30.86 196.164 31.48C195.504 32.1 195.174 33.18 195.174 34.72V43H190.974V26.38H195.174V28.96Z" fill="#FD7262"/>
<path d="M25 12V8C25 6.89543 25.8954 6 27 6H39C40.1046 6 41 6.89543 41 8V12" stroke="#8EA3F6" stroke-width="4"/>
<path d="M2 46V18.3491L10.5459 13.8902L64.6697 13.3948L83.6606 2H126.39L146.33 13.3948H201.404L209 18.3491V26.2759" stroke="#8EA3F6" stroke-width="4"/>
</svg>
